HIERARCHY
ROOT Hips
{
	OFFSET 0.00000 0.00000 0.00000
	CHANNELS 6 Xposition Yposition Zposition Zrotation Yrotation Xrotation 
	JOINT LHipJoint
	{
		OFFSET 0 0 0
		CHANNELS 3 Zrotation Yrotation Xrotation
		JOINT LeftUpLeg
		{
			OFFSET 1.61328 -1.70571 0.84375
			CHANNELS 3 Zrotation Yrotation Xrotation
			JOINT LeftLeg
			{
				OFFSET 2.32400 -6.38513 0.00000
				CHANNELS 3 Zrotation Yrotation Xrotation
				JOINT LeftFoot
				{
					OFFSET 2.58843 -7.11166 0.00000
					CHANNELS 3 Zrotation Yrotation Xrotation
					JOINT LeftToeBase
					{
						OFFSET 0.17200 -0.47257 2.47970
						CHANNELS 3 Zrotation Yrotation Xrotation
						End Site
						{
							OFFSET 0.00000 -0.00000 1.26912
						}
					}
				}
			}
		}
	}
	JOINT RHipJoint
	{
		OFFSET 0 0 0
		CHANNELS 3 Zrotation Yrotation Xrotation
		JOINT RightUpLeg
		{
			OFFSET -1.49930 -1.70570 0.84375
			CHANNELS 3 Zrotation Yrotation Xrotation
			JOINT RightLeg
			{
				OFFSET -2.30458 -6.33178 0.00000
				CHANNELS 3 Zrotation Yrotation Xrotation
				JOINT RightFoot
				{
					OFFSET -2.62261 -7.20556 0.00000
					CHANNELS 3 Zrotation Yrotation Xrotation
					JOINT RightToeBase
					{
						OFFSET -0.18709 -0.51403 2.51340
						CHANNELS 3 Zrotation Yrotation Xrotation
						End Site
						{
							OFFSET -0.00000 -0.00000 1.28858
						}
					}
				}
			}
		}
	}
	JOINT LowerBack
	{
		OFFSET 0 0 0
		CHANNELS 3 Zrotation Yrotation Xrotation
		JOINT Spine
		{
			OFFSET -0.03798 2.19274 -0.19881
			CHANNELS 3 Zrotation Yrotation Xrotation
			JOINT Spine1
			{
				OFFSET -0.00024 2.19460 0.05248
				CHANNELS 3 Zrotation Yrotation Xrotation
				JOINT Neck
				{
					OFFSET 0 0 0
					CHANNELS 3 Zrotation Yrotation Xrotation
					JOINT Neck1
					{
						OFFSET -0.00746 1.82323 0.17286
						CHANNELS 3 Zrotation Yrotation Xrotation
						JOINT Head
						{
							OFFSET 0.11826 1.82121 -0.27841
							CHANNELS 3 Zrotation Yrotation Xrotation
							End Site
							{
								OFFSET 0.03496 1.85543 -0.11495
							}
						}
					}
				}
				JOINT LeftShoulder
				{
					OFFSET 0 0 0
					CHANNELS 3 Zrotation Yrotation Xrotation
					JOINT LeftArm
					{
						OFFSET 3.71926 0.78840 0.25473
						CHANNELS 3 Zrotation Yrotation Xrotation
						JOINT LeftForeArm
						{
							OFFSET 5.37587 -0.00000 0.00000
							CHANNELS 3 Zrotation Yrotation Xrotation
							JOINT LeftHand
							{
								OFFSET 3.35977 -0.00000 0.00000
								CHANNELS 3 Zrotation Yrotation Xrotation
								JOINT LeftFingerBase
								{
									OFFSET 0 0 0
									CHANNELS 3 Zrotation Yrotation Xrotation
									JOINT LeftHandIndex1
									{
										OFFSET 0.56186 -0.00000 0.00000
										CHANNELS 3 Zrotation Yrotation Xrotation
										End Site
										{
											OFFSET 0.45299 -0.00000 0.00000
										}
									}
								}
								JOINT LThumb
								{
									OFFSET 0 0 0
									CHANNELS 3 Zrotation Yrotation Xrotation
									End Site
									{
										OFFSET 0.45990 -0.00000 0.45990
									}
								}
							}
						}
					}
				}
				JOINT RightShoulder
				{
					OFFSET 0 0 0
					CHANNELS 3 Zrotation Yrotation Xrotation
					JOINT RightArm
					{
						OFFSET -3.65136 0.56074 0.01624
						CHANNELS 3 Zrotation Yrotation Xrotation
						JOINT RightForeArm
						{
							OFFSET -5.22819 -0.00000 0.00000
							CHANNELS 3 Zrotation Yrotation Xrotation
							JOINT RightHand
							{
								OFFSET -3.40764 -0.00000 0.00000
								CHANNELS 3 Zrotation Yrotation Xrotation
								JOINT RightFingerBase
								{
									OFFSET 0 0 0
									CHANNELS 3 Zrotation Yrotation Xrotation
									JOINT RightHandIndex1
									{
										OFFSET -0.58325 -0.00000 0.00000
										CHANNELS 3 Zrotation Yrotation Xrotation
										End Site
										{
											OFFSET -0.47024 -0.00000 0.00000
										}
									}
								}
								JOINT RThumb
								{
									OFFSET 0 0 0
									CHANNELS 3 Zrotation Yrotation Xrotation
									End Site
									{
										OFFSET -0.47742 -0.00000 0.47742
									}
								}
							}
						}
					}
				}
			}
		}
	}
}
MOTION
Frames: 9
Frame Time: .0083333
46.4129 16.3319 -6.7311 899.7190 -87.4924 1260.8300 0.0000 0.0000 0.0000 -25.1592 6.9581 1.4968 1.1760 6.8829 19.3689 1.2555 -5.5812 -20.0733 0.0547 -1.5094 -4.1517 0.0000 0.0000 0.0000 16.8220 10.5652 -32.0935 -13.9251 -19.0912 71.9757 -1.3471 3.3634 -21.0951 -0.0740 -1.7549 4.8288 -3.6317 -2.7469 3.5108 0.8089 -3.7924 0.5742 3.0207 -1.8860 -1.0847 -1.8760 -0.4211 -4.3786 9.8993 -0.3473 -6.8585 3.5533 -0.3703 -1.4046 -0.0000 -0.0000 0.0000 -83.9367 -7.1994 42.6639 20.6146 -31.3757 -5.8480 -0.0000 0.0000 -13.5621 14.3084 23.6277 5.8367 -7.1250 0.0000 -0.0000 -15.5602 53.6009 -3.3542 -0.0000 -0.0000 0.0000 84.4178 -13.2277 30.8700 -17.4275 27.4179 -4.2823 0.0000 -0.0000 -6.2257 -20.1375 4.0220 -1.4733 7.1250 -0.0000 -0.0000 4.9061 -25.6936 2.3019
46.3332 16.3638 -6.7149 900.9350 -87.4006 1259.9000 0.0000 0.0000 0.0000 -25.1736 7.0089 2.2411 1.0249 6.4401 18.0668 1.2059 -5.4022 -19.6722 0.0673 -1.6734 -4.6039 0.0000 0.0000 0.0000 17.1322 10.5902 -33.0526 -13.7741 -19.0441 71.5135 -1.3682 3.6100 -21.2241 -0.0627 -1.6162 4.4461 -3.6742 -2.8251 3.2859 0.9796 -3.8886 0.3771 3.2167 -1.9290 -1.1393 -1.7451 -0.3222 -4.4694 9.8247 -0.2243 -6.8887 3.5026 -0.3116 -1.4062 -0.0000 -0.0000 0.0000 -83.6468 -7.5740 43.2497 21.8365 -32.7917 -6.4971 -0.0000 0.0000 -13.7924 13.4068 23.3454 5.3959 -7.1250 0.0000 -0.0000 -16.3116 53.1641 -3.3463 -0.0000 -0.0000 0.0000 84.1264 -13.9516 30.1630 -16.9075 26.7357 -4.0456 0.0000 -0.0000 -5.7454 -19.6841 4.0074 -1.4322 7.1250 -0.0000 -0.0000 5.2486 -25.7207 2.4605
46.2543 16.3908 -6.7004 901.4420 -87.2901 1259.7000 0.0000 0.0000 0.0000 -25.1921 7.1324 2.9111 0.8882 6.0073 16.8056 1.1619 -5.3046 -19.3049 0.0859 -1.8900 -5.2018 0.0000 0.0000 0.0000 17.4094 10.7086 -34.0135 -13.6005 -18.9884 70.9806 -1.3863 3.8541 -21.3296 -0.0468 -1.3959 3.8388 -3.7494 -2.8927 3.0679 1.1336 -3.9728 0.1775 3.4138 -1.9656 -1.1998 -1.6207 -0.2259 -4.5734 9.7766 -0.1047 -6.9239 3.4626 -0.2550 -1.4068 -0.0000 0.0000 0.0000 -83.2878 -7.9887 43.7877 23.1287 -34.2292 -7.2105 -0.0000 0.0000 -13.9375 12.5483 22.9798 4.9663 -7.1250 0.0000 -0.0000 -16.9735 52.6596 -3.2755 -0.0000 0.0000 0.0000 83.8388 -14.6538 29.4288 -16.3977 26.0569 -3.8190 0.0000 -0.0000 -5.2328 -19.2409 3.9982 -1.3941 7.1250 -0.0000 -0.0000 5.5835 -25.7413 2.6162
46.1761 16.4126 -6.6874 901.1380 -87.1622 1260.3200 0.0000 0.0000 0.0000 -25.2212 7.3433 3.5189 0.7636 5.5804 15.5717 1.1202 -5.3064 -18.9450 0.1090 -2.1289 -5.8619 0.0000 0.0000 0.0000 17.6371 10.9151 -34.9716 -13.4083 -18.9247 70.3891 -1.4009 4.0701 -21.4139 -0.0282 -1.0850 2.9827 -3.8637 -2.9507 2.8613 1.2661 -4.0462 -0.0229 3.6107 -1.9963 -1.2666 -1.5039 -0.1326 -4.6846 9.7548 0.0113 -6.9667 3.4335 -0.2010 -1.4084 0.0000 0.0000 0.0000 -82.8590 -8.4437 44.2723 24.4855 -35.6734 -7.9879 -0.0000 0.0000 -14.0105 11.7923 22.5461 4.5767 -7.1250 0.0000 -0.0000 -17.4972 52.1126 -3.1430 0.0000 0.0000 0.0000 83.5591 -15.3398 28.6527 -15.9010 25.3863 -3.6034 0.0000 -0.0000 -4.6824 -18.7789 4.0224 -1.3663 7.1250 -0.0000 -0.0000 5.9311 -25.7270 2.7827
46.0986 16.4287 -6.6757 899.9670 -87.0197 1261.8200 0.0000 0.0000 0.0000 -25.2719 7.6449 4.0811 0.6492 5.1542 14.3488 1.0775 -5.3998 -18.5643 0.1359 -2.3758 -6.5453 0.0000 0.0000 0.0000 17.7995 11.1997 -35.9221 -13.2018 -18.8538 69.7511 -1.4132 4.2524 -21.4850 -0.0116 -0.6955 1.9113 -4.0221 -2.9998 2.6733 1.3729 -4.1103 -0.2193 3.8067 -2.0218 -1.3389 -1.3994 -0.0441 -4.8035 9.7608 0.1216 -7.0193 3.4166 -0.1504 -1.4115 -0.0000 0.0000 0.0000 -82.3576 -8.9388 44.7109 25.9096 -37.1193 -8.8330 -0.0000 0.0000 -14.0378 11.1959 22.0553 4.2506 -7.1250 0.0000 -0.0000 -17.8376 51.5423 -2.9529 -0.0000 0.0000 0.0000 83.2930 -16.0086 27.8350 -15.4265 24.7369 -3.4024 0.0000 -0.0000 -4.1058 -18.3142 4.0305 -1.3327 7.1250 -0.0000 -0.0000 6.2812 -25.7292 2.9484
46.0220 16.4389 -6.6649 897.9470 -86.8733 1264.1600 0.0000 0.0000 0.0000 -25.3547 8.0266 4.6272 0.5427 4.7199 13.1113 1.0300 -5.5729 -18.1306 0.1637 -2.6066 -7.1853 0.0000 0.0000 0.0000 17.8831 11.5395 -36.8601 -12.9851 -18.7768 69.0793 -1.4239 4.4053 -21.5485 -0.0017 -0.2682 0.7370 -4.2247 -3.0436 2.5165 1.4504 -4.1700 -0.4097 3.9985 -2.0443 -1.4216 -1.3072 0.0382 -4.9185 9.7899 0.2252 -7.0894 3.4104 -0.1042 -1.4206 -0.0000 0.0000 0.0000 -81.7881 -9.4784 45.1044 27.3934 -38.5518 -9.7433 -0.0000 0.0000 -14.0367 10.7869 21.5750 4.0075 -7.1250 0.0000 -0.0000 -18.0044 51.0162 -2.7446 -0.0000 0.0000 0.0000 83.0430 -16.6691 26.9752 -14.9771 24.1142 -3.2166 0.0000 -0.0000 -3.5223 -17.8424 4.0489 -1.3020 7.1250 -0.0000 -0.0000 6.6361 -25.7205 3.1184
45.9462 16.4431 -6.6547 895.2800 -86.7175 1267.1200 0.0000 0.0000 0.0000 -25.4698 8.4904 5.1864 0.4428 4.2695 11.8360 0.9759 -5.8191 -17.6301 0.1882 -2.7941 -7.7059 0.0000 0.0000 0.0000 17.8906 11.9250 -37.7725 -12.7618 -18.6945 68.3841 -1.4344 4.5341 -21.6139 -0.0007 0.1742 -0.4786 -4.4635 -3.0800 2.3975 1.4989 -4.2228 -0.5841 4.1825 -2.0628 -1.5089 -1.2321 0.1143 -5.0368 9.8438 0.3223 -7.1810 3.4165 -0.0622 -1.4360 0.0000 0.0000 0.0000 -81.1525 -10.0742 45.4564 28.9262 -39.9550 -10.7133 -0.0000 0.0000 -14.0233 10.5594 21.0742 3.8348 -7.1250 0.0000 -0.0000 -17.9922 50.5011 -2.5098 0.0000 0.0000 0.0000 82.8158 -17.3082 26.0663 -14.5558 23.5236 -3.0464 0.0000 -0.0000 -2.9558 -17.3493 4.0331 -1.2587 7.1250 -0.0000 -0.0000 7.0082 -25.7476 3.2912
45.8713 16.4411 -6.6448 892.0580 -86.5533 1270.6200 0.0000 0.0000 0.0000 -25.6223 9.0260 5.8003 0.3480 3.7904 10.4877 0.9149 -6.1256 -17.0592 0.2048 -2.9136 -8.0382 0.0000 0.0000 0.0000 17.8209 12.3387 -38.6486 -12.5347 -18.6077 67.6739 -1.4453 4.6572 -21.6844 -0.0079 0.5724 -1.5729 -4.7375 -3.1112 2.3276 1.5194 -4.2718 -0.7386 4.3595 -2.0788 -1.6030 -1.1723 0.1828 -5.1434 9.9105 0.4121 -7.3110 3.4306 -0.0257 -1.4657 -0.0000 0.0000 0.0000 -80.4574 -10.7310 45.7706 30.4956 -41.3144 -11.7355 -0.0000 0.0000 -14.0115 10.5357 20.5555 3.7362 -7.1250 0.0000 -0.0000 -17.7850 50.0010 -2.2555 -0.0000 0.0000 0.0000 82.6112 -17.9272 25.1147 -14.1603 22.9633 -2.8903 0.0000 -0.0000 -2.4259 -16.9063 4.0394 -1.2266 7.1250 -0.0000 -0.0000 7.3415 -25.7502 3.4497
45.7977 16.4331 -6.6353 888.7070 -86.3741 1274.2000 0.0000 0.0000 0.0000 -25.8035 9.5439 6.5333 0.2576 3.2656 9.0192 0.8519 -6.3637 -16.4615 0.2129 -2.9703 -8.1961 0.0000 0.0000 0.0000 17.7004 12.7803 -39.4796 -12.3045 -18.5164 66.9508 -1.4562 4.7631 -21.7557 -0.0208 0.9321 -2.5621 -5.0280 -3.1318 2.3098 1.5177 -4.3099 -0.8648 4.5248 -2.0892 -1.6986 -1.1272 0.2435 -5.2394 9.9862 0.4948 -7.4891 3.4513 0.0050 -1.5127 -0.0000 0.0000 0.0000 -79.7082 -11.4645 46.0512 32.0912 -42.6197 -12.8025 -0.0000 0.0000 -14.0129 10.7106 20.0508 3.7103 -7.1250 0.0000 -0.0000 -17.4047 49.5434 -2.0041 -0.0000 0.0000 0.0000 82.4360 -18.5158 24.1167 -13.7886 22.4317 -2.7469 0.0000 -0.0000 -1.9399 -16.5370 4.0509 -1.2016 7.1250 -0.0000 -0.0000 7.6188 -25.7458 3.5830
